<?xml version="1.0" encoding="iso-8859-1"?>
<!-- Generator: Adobe Illustrator 19.0.0, SVG Export Plug-In . SVG Version: 6.00 Build 0)  -->
<svg version="1.1" id="Layer_1" xmlns="http://www.w3.org/2000/svg" xmlns:xlink="http://www.w3.org/1999/xlink" x="0px" y="0px"
	 viewBox="0 0 489.717 66.376" style="enable-background:new 0 0 489.717 66.376;" xml:space="preserve">
<g>
	<polygon points="151.35,0.005 97.203,66.381 108.679,66.381 148.505,17.642 148.505,66.381 157.988,66.381 157.988,0.005 	"/>
	<polygon points="2,0 2,66.376 40.879,66.376 40.879,57.368 11.482,57.368 11.482,0 	"/>
	<polygon points="53.206,0 53.206,66.376 92.085,66.376 92.085,57.368 62.688,57.368 62.688,35.085 92.085,35.085 92.085,26.077 
		62.688,26.077 62.688,9.008 92.085,9.008 92.085,0 	"/>
	<polygon points="220.731,0 220.731,48.74 180.904,0 174.267,0 174.267,66.376 183.749,66.376 183.749,17.637 223.575,66.376 
		230.213,66.376 230.213,0 	"/>
	<g>
		<path d="M272.251,27.973c4.551,0,7.018-1.138,8.723-2.94c1.613-1.707,2.656-3.982,2.656-6.543c0-2.56-1.043-4.836-2.656-6.542
			c-1.705-1.802-4.172-2.94-8.723-2.94h-15.172v18.965H272.251z M257.079,36.981v29.395h-9.483V0h25.129
			c6.448,0,10.62,1.612,13.844,4.362c3.984,3.413,6.542,8.439,6.542,14.128c0,5.69-2.558,10.715-6.542,14.129
			c-3.224,2.75-7.396,4.362-13.844,4.362H257.079z"/>
	</g>
	<polygon points="306.389,0 306.389,66.376 345.268,66.376 345.268,57.368 315.872,57.368 315.872,0 	"/>
	<g>
		<path d="M360.724,58.601c-4.267-4.646-6.922-10.81-6.922-19.723V0h9.483v39.352c0,6.258,1.517,10.146,4.172,13.086
			c3.318,3.698,8.249,5.878,13.844,5.878s10.524-2.18,13.844-5.878c2.655-2.94,4.172-6.828,4.172-13.086V0h9.483v38.878
			c0,8.913-2.657,15.077-6.923,19.723c-5.025,5.405-12.421,8.724-20.576,8.724S365.749,64.006,360.724,58.601"/>
	</g>
	<polygon points="483.079,0 457.477,40.489 431.874,0 425.237,0 425.237,66.376 434.719,66.376 434.719,21.714 454.158,52.152 
		460.795,52.152 480.235,21.714 480.235,66.376 489.717,66.376 489.717,0 	"/>
</g>
<rect x="657.469" y="-296.338" width="3" height="0"/>
</svg>
